<svg xmlns="http://www.w3.org/2000/svg" viewBox="0 0 480 120" role="img" aria-label="OpenMangos">
  <defs>
    <linearGradient id="mango" x1="0%" y1="0%" x2="100%" y2="100%">
      <stop offset="0%" stop-color="#ffc857"/>
      <stop offset="55%" stop-color="#f5a623"/>
      <stop offset="100%" stop-color="#c77800"/>
    </linearGradient>
    <linearGradient id="glow" x1="0%" y1="50%" x2="100%" y2="50%">
      <stop offset="0%" stop-color="#ffc857" stop-opacity="0.35"/>
      <stop offset="100%" stop-color="#f5a623" stop-opacity="0"/>
    </linearGradient>
    <filter id="soft" x="-20%" y="-20%" width="140%" height="140%">
      <feGaussianBlur stdDeviation="2.5" result="b"/>
      <feMerge>
        <feMergeNode in="b"/>
        <feMergeNode in="SourceGraphic"/>
      </feMerge>
    </filter>
  </defs>

  <rect x="8" y="8" width="104" height="104" rx="24" fill="#0a0908"/>
  <rect x="8" y="8" width="104" height="104" rx="24" fill="none" stroke="#3d3020" stroke-width="1.5"/>

  <ellipse cx="52" cy="78" rx="34" ry="4" fill="url(#glow)" opacity="0.7"/>

  <path fill="url(#mango)" filter="url(#soft)"
    d="M34 44c0-14 10-24 22-24 10 0 18 7 20 17 2 12-6 24-18 28-14 5-28-2-30-14-1-4-1-9 6-7z"/>
  <path fill="#ffe8b8" opacity="0.55"
    d="M40 50c6-10 16-14 24-12-8 2-14 8-17 16-2 5-9 4-7-4z"/>
  <path fill="#ffc857"
    d="M48 30c-6-8-2-16 6-18 4-1 8 1 9 5-5 2-9 6-10 11-2-1-4-2-5 2z"/>
  <path fill="#f5a623"
    d="M54 24c4-2 8-1 10 2-4 1-7 4-8 8-1-3-1-7-2-10z"/>
  <path fill="url(#mango)" filter="url(#soft)"
    d="M72 46 L92 60 L72 74 Z"/>

  <text x="136" y="58" fill="#faf6f0" font-family="ui-sans-serif, system-ui, -apple-system, BlinkMacSystemFont, 'Segoe UI', sans-serif" font-size="36" font-weight="700" letter-spacing="-0.04em">OpenMangos</text>
  <text x="136" y="86" fill="#a89a88" font-family="ui-sans-serif, system-ui, -apple-system, BlinkMacSystemFont, 'Segoe UI', sans-serif" font-size="11" font-weight="500" letter-spacing="0.22em">ADAPTIVE TERMINAL FRAMEWORK</text>
</svg>